<mxfile host="Electron" agent="Mozilla/5.0 (Windows NT 10.0; Win64; x64) AppleWebKit/537.36 (KHTML, like Gecko) draw.io/24.7.17 Chrome/128.0.6613.36 Electron/32.0.1 Safari/537.36" version="24.7.17">
  <diagram name="PÃ¡gina-1" id="8Q-HM6tFn7S9Ek9yruFG">
    <mxGraphModel dx="1035" dy="626" grid="1" gridSize="10" guides="1" tooltips="1" connect="1" arrows="1" fold="1" page="1" pageScale="1" pageWidth="827" pageHeight="1169" math="0" shadow="0">
      <root>
        <mxCell id="0" />
        <mxCell id="1" parent="0" />
        <mxCell id="uCPlCIgPx5DpNd_hUOtd-1" value="" style="endArrow=none;html=1;rounded=0;" edge="1" parent="1">
          <mxGeometry width="50" height="50" relative="1" as="geometry">
            <mxPoint x="60" y="287" as="sourcePoint" />
            <mxPoint x="60" y="207" as="targetPoint" />
          </mxGeometry>
        </mxCell>
        <mxCell id="uCPlCIgPx5DpNd_hUOtd-2" value="" style="endArrow=classic;html=1;rounded=0;" edge="1" parent="1">
          <mxGeometry width="50" height="50" relative="1" as="geometry">
            <mxPoint x="60" y="247" as="sourcePoint" />
            <mxPoint x="120" y="247" as="targetPoint" />
          </mxGeometry>
        </mxCell>
        <mxCell id="uCPlCIgPx5DpNd_hUOtd-3" value="Llega&lt;div&gt;un pedido&lt;/div&gt;&lt;div&gt;a linea 1&lt;/div&gt;" style="text;html=1;align=center;verticalAlign=middle;resizable=0;points=[];autosize=1;strokeColor=none;fillColor=none;" vertex="1" parent="1">
          <mxGeometry x="20" y="140" width="80" height="60" as="geometry" />
        </mxCell>
        <mxCell id="uCPlCIgPx5DpNd_hUOtd-4" value="" style="endArrow=none;html=1;rounded=0;" edge="1" parent="1">
          <mxGeometry width="50" height="50" relative="1" as="geometry">
            <mxPoint x="60" y="544" as="sourcePoint" />
            <mxPoint x="60" y="464" as="targetPoint" />
          </mxGeometry>
        </mxCell>
        <mxCell id="uCPlCIgPx5DpNd_hUOtd-5" value="" style="endArrow=classic;html=1;rounded=0;" edge="1" parent="1">
          <mxGeometry width="50" height="50" relative="1" as="geometry">
            <mxPoint x="60" y="504" as="sourcePoint" />
            <mxPoint x="120" y="504" as="targetPoint" />
          </mxGeometry>
        </mxCell>
        <mxCell id="uCPlCIgPx5DpNd_hUOtd-6" value="Llega&lt;div&gt;un pedido&lt;/div&gt;&lt;div&gt;a linea 2&lt;/div&gt;" style="text;html=1;align=center;verticalAlign=middle;resizable=0;points=[];autosize=1;strokeColor=none;fillColor=none;" vertex="1" parent="1">
          <mxGeometry x="20" y="397" width="80" height="60" as="geometry" />
        </mxCell>
        <mxCell id="uCPlCIgPx5DpNd_hUOtd-8" value="" style="ellipse;whiteSpace=wrap;html=1;aspect=fixed;" vertex="1" parent="1">
          <mxGeometry x="120.00000000000011" y="227" width="40" height="40" as="geometry" />
        </mxCell>
        <mxCell id="uCPlCIgPx5DpNd_hUOtd-9" value="" style="endArrow=none;html=1;rounded=0;" edge="1" parent="1">
          <mxGeometry width="50" height="50" relative="1" as="geometry">
            <mxPoint x="220.0000000000001" y="287" as="sourcePoint" />
            <mxPoint x="220.0000000000001" y="207" as="targetPoint" />
          </mxGeometry>
        </mxCell>
        <mxCell id="uCPlCIgPx5DpNd_hUOtd-10" value="" style="endArrow=classic;html=1;rounded=0;" edge="1" parent="1">
          <mxGeometry width="50" height="50" relative="1" as="geometry">
            <mxPoint x="220.0000000000001" y="247" as="sourcePoint" />
            <mxPoint x="280.0000000000001" y="247" as="targetPoint" />
          </mxGeometry>
        </mxCell>
        <mxCell id="uCPlCIgPx5DpNd_hUOtd-11" value="" style="endArrow=classic;html=1;rounded=0;" edge="1" parent="1">
          <mxGeometry width="50" height="50" relative="1" as="geometry">
            <mxPoint x="160.0000000000001" y="246.57999999999998" as="sourcePoint" />
            <mxPoint x="220.0000000000001" y="247" as="targetPoint" />
          </mxGeometry>
        </mxCell>
        <mxCell id="uCPlCIgPx5DpNd_hUOtd-12" value="" style="ellipse;whiteSpace=wrap;html=1;aspect=fixed;" vertex="1" parent="1">
          <mxGeometry x="120.00000000000011" y="487" width="40" height="40" as="geometry" />
        </mxCell>
        <mxCell id="uCPlCIgPx5DpNd_hUOtd-13" value="" style="endArrow=none;html=1;rounded=0;" edge="1" parent="1">
          <mxGeometry width="50" height="50" relative="1" as="geometry">
            <mxPoint x="220.0000000000001" y="547" as="sourcePoint" />
            <mxPoint x="220.0000000000001" y="467" as="targetPoint" />
          </mxGeometry>
        </mxCell>
        <mxCell id="uCPlCIgPx5DpNd_hUOtd-14" value="" style="endArrow=classic;html=1;rounded=0;" edge="1" parent="1">
          <mxGeometry width="50" height="50" relative="1" as="geometry">
            <mxPoint x="220.0000000000001" y="507" as="sourcePoint" />
            <mxPoint x="280.0000000000001" y="507" as="targetPoint" />
          </mxGeometry>
        </mxCell>
        <mxCell id="uCPlCIgPx5DpNd_hUOtd-15" value="" style="endArrow=classic;html=1;rounded=0;" edge="1" parent="1">
          <mxGeometry width="50" height="50" relative="1" as="geometry">
            <mxPoint x="160.0000000000001" y="506.58" as="sourcePoint" />
            <mxPoint x="220.0000000000001" y="507" as="targetPoint" />
          </mxGeometry>
        </mxCell>
        <mxCell id="uCPlCIgPx5DpNd_hUOtd-16" value="Pedido de Linea 1&lt;div&gt;Esperando a procesarse&lt;div&gt;&lt;br&gt;&lt;/div&gt;&lt;/div&gt;" style="text;html=1;align=center;verticalAlign=middle;resizable=0;points=[];autosize=1;strokeColor=none;fillColor=none;" vertex="1" parent="1">
          <mxGeometry x="60" y="267" width="150" height="60" as="geometry" />
        </mxCell>
        <mxCell id="uCPlCIgPx5DpNd_hUOtd-18" value="Pedido de Linea 2&lt;div&gt;Esperando a procesarse&lt;/div&gt;" style="text;html=1;align=center;verticalAlign=middle;resizable=0;points=[];autosize=1;strokeColor=none;fillColor=none;" vertex="1" parent="1">
          <mxGeometry x="65" y="547" width="150" height="40" as="geometry" />
        </mxCell>
        <mxCell id="uCPlCIgPx5DpNd_hUOtd-19" value="" style="ellipse;whiteSpace=wrap;html=1;aspect=fixed;" vertex="1" parent="1">
          <mxGeometry x="280.0000000000001" y="227" width="40" height="40" as="geometry" />
        </mxCell>
        <mxCell id="uCPlCIgPx5DpNd_hUOtd-20" value="" style="endArrow=none;html=1;rounded=0;" edge="1" parent="1">
          <mxGeometry width="50" height="50" relative="1" as="geometry">
            <mxPoint x="380.0000000000001" y="287" as="sourcePoint" />
            <mxPoint x="380.0000000000001" y="207" as="targetPoint" />
          </mxGeometry>
        </mxCell>
        <mxCell id="uCPlCIgPx5DpNd_hUOtd-21" value="" style="endArrow=classic;html=1;rounded=0;" edge="1" parent="1">
          <mxGeometry width="50" height="50" relative="1" as="geometry">
            <mxPoint x="380.0000000000001" y="247" as="sourcePoint" />
            <mxPoint x="440.0000000000001" y="247" as="targetPoint" />
          </mxGeometry>
        </mxCell>
        <mxCell id="uCPlCIgPx5DpNd_hUOtd-22" value="" style="endArrow=classic;html=1;rounded=0;" edge="1" parent="1">
          <mxGeometry width="50" height="50" relative="1" as="geometry">
            <mxPoint x="320.0000000000001" y="246.57999999999998" as="sourcePoint" />
            <mxPoint x="380.0000000000001" y="247" as="targetPoint" />
          </mxGeometry>
        </mxCell>
        <mxCell id="uCPlCIgPx5DpNd_hUOtd-23" value="" style="ellipse;whiteSpace=wrap;html=1;aspect=fixed;" vertex="1" parent="1">
          <mxGeometry x="280.0000000000001" y="487" width="40" height="40" as="geometry" />
        </mxCell>
        <mxCell id="uCPlCIgPx5DpNd_hUOtd-24" value="" style="endArrow=none;html=1;rounded=0;" edge="1" parent="1">
          <mxGeometry width="50" height="50" relative="1" as="geometry">
            <mxPoint x="380.0000000000001" y="547" as="sourcePoint" />
            <mxPoint x="380.0000000000001" y="467" as="targetPoint" />
          </mxGeometry>
        </mxCell>
        <mxCell id="uCPlCIgPx5DpNd_hUOtd-25" value="" style="endArrow=classic;html=1;rounded=0;" edge="1" parent="1">
          <mxGeometry width="50" height="50" relative="1" as="geometry">
            <mxPoint x="380.0000000000001" y="507" as="sourcePoint" />
            <mxPoint x="440.0000000000001" y="507" as="targetPoint" />
          </mxGeometry>
        </mxCell>
        <mxCell id="uCPlCIgPx5DpNd_hUOtd-26" value="" style="endArrow=classic;html=1;rounded=0;" edge="1" parent="1">
          <mxGeometry width="50" height="50" relative="1" as="geometry">
            <mxPoint x="320.0000000000001" y="506.58" as="sourcePoint" />
            <mxPoint x="380.0000000000001" y="507" as="targetPoint" />
          </mxGeometry>
        </mxCell>
        <mxCell id="uCPlCIgPx5DpNd_hUOtd-28" value="&lt;h6&gt;&lt;span style=&quot;font-weight: normal;&quot;&gt;Se deposita pedido&lt;br&gt;en cinta&lt;/span&gt;&lt;/h6&gt;" style="text;html=1;align=left;verticalAlign=middle;resizable=0;points=[];autosize=1;strokeColor=none;fillColor=none;" vertex="1" parent="1">
          <mxGeometry x="220" y="152" width="90" height="70" as="geometry" />
        </mxCell>
        <mxCell id="uCPlCIgPx5DpNd_hUOtd-29" value="Transportando&lt;div&gt;Pedido por cinta&lt;/div&gt;" style="text;html=1;align=center;verticalAlign=middle;resizable=0;points=[];autosize=1;strokeColor=none;fillColor=none;" vertex="1" parent="1">
          <mxGeometry x="240" y="267" width="110" height="40" as="geometry" />
        </mxCell>
        <mxCell id="uCPlCIgPx5DpNd_hUOtd-34" style="edgeStyle=orthogonalEdgeStyle;rounded=0;orthogonalLoop=1;jettySize=auto;html=1;curved=1;" edge="1" parent="1" source="uCPlCIgPx5DpNd_hUOtd-30">
          <mxGeometry relative="1" as="geometry">
            <mxPoint x="210" y="490" as="targetPoint" />
          </mxGeometry>
        </mxCell>
        <mxCell id="uCPlCIgPx5DpNd_hUOtd-35" style="edgeStyle=orthogonalEdgeStyle;rounded=0;orthogonalLoop=1;jettySize=auto;html=1;curved=1;endArrow=none;endFill=0;startArrow=classic;startFill=1;" edge="1" parent="1">
          <mxGeometry relative="1" as="geometry">
            <mxPoint x="390" y="267" as="targetPoint" />
            <mxPoint x="320" y="387" as="sourcePoint" />
          </mxGeometry>
        </mxCell>
        <mxCell id="uCPlCIgPx5DpNd_hUOtd-36" style="edgeStyle=orthogonalEdgeStyle;rounded=0;orthogonalLoop=1;jettySize=auto;html=1;curved=1;endArrow=none;endFill=0;startArrow=classic;startFill=1;" edge="1" parent="1" source="uCPlCIgPx5DpNd_hUOtd-30">
          <mxGeometry relative="1" as="geometry">
            <mxPoint x="390" y="490" as="targetPoint" />
          </mxGeometry>
        </mxCell>
        <mxCell id="uCPlCIgPx5DpNd_hUOtd-30" value="O" style="ellipse;whiteSpace=wrap;html=1;aspect=fixed;" vertex="1" parent="1">
          <mxGeometry x="280" y="370" width="40" height="40" as="geometry" />
        </mxCell>
        <mxCell id="uCPlCIgPx5DpNd_hUOtd-31" value="&lt;h5&gt;&lt;span style=&quot;font-weight: normal;&quot;&gt;Llega el pedido&lt;br&gt;al sector anulados&lt;/span&gt;&lt;/h5&gt;" style="text;html=1;align=left;verticalAlign=middle;resizable=0;points=[];autosize=1;strokeColor=none;fillColor=none;" vertex="1" parent="1">
          <mxGeometry x="380" y="152" width="100" height="70" as="geometry" />
        </mxCell>
        <mxCell id="uCPlCIgPx5DpNd_hUOtd-32" value="Puesto Libre" style="text;html=1;align=center;verticalAlign=middle;resizable=0;points=[];autosize=1;strokeColor=none;fillColor=none;" vertex="1" parent="1">
          <mxGeometry x="250" y="340" width="90" height="30" as="geometry" />
        </mxCell>
        <mxCell id="uCPlCIgPx5DpNd_hUOtd-33" style="edgeStyle=orthogonalEdgeStyle;rounded=0;orthogonalLoop=1;jettySize=auto;html=1;entryX=0.98;entryY=0.083;entryDx=0;entryDy=0;entryPerimeter=0;curved=1;" edge="1" parent="1" source="uCPlCIgPx5DpNd_hUOtd-30" target="uCPlCIgPx5DpNd_hUOtd-16">
          <mxGeometry relative="1" as="geometry" />
        </mxCell>
        <mxCell id="uCPlCIgPx5DpNd_hUOtd-38" value="" style="ellipse;whiteSpace=wrap;html=1;aspect=fixed;" vertex="1" parent="1">
          <mxGeometry x="440.0000000000001" y="227" width="40" height="40" as="geometry" />
        </mxCell>
        <mxCell id="uCPlCIgPx5DpNd_hUOtd-39" value="" style="endArrow=none;html=1;rounded=0;" edge="1" parent="1">
          <mxGeometry width="50" height="50" relative="1" as="geometry">
            <mxPoint x="540.0000000000001" y="287" as="sourcePoint" />
            <mxPoint x="540.0000000000001" y="207" as="targetPoint" />
          </mxGeometry>
        </mxCell>
        <mxCell id="uCPlCIgPx5DpNd_hUOtd-40" value="" style="endArrow=classic;html=1;rounded=0;" edge="1" parent="1">
          <mxGeometry width="50" height="50" relative="1" as="geometry">
            <mxPoint x="540.0000000000001" y="247" as="sourcePoint" />
            <mxPoint x="600.0000000000001" y="247" as="targetPoint" />
          </mxGeometry>
        </mxCell>
        <mxCell id="uCPlCIgPx5DpNd_hUOtd-41" value="" style="endArrow=classic;html=1;rounded=0;" edge="1" parent="1">
          <mxGeometry width="50" height="50" relative="1" as="geometry">
            <mxPoint x="480.0000000000001" y="246.57999999999998" as="sourcePoint" />
            <mxPoint x="540.0000000000001" y="247" as="targetPoint" />
          </mxGeometry>
        </mxCell>
        <mxCell id="uCPlCIgPx5DpNd_hUOtd-42" value="Sellando Pedido" style="text;html=1;align=center;verticalAlign=middle;resizable=0;points=[];autosize=1;strokeColor=none;fillColor=none;" vertex="1" parent="1">
          <mxGeometry x="400" y="267" width="110" height="30" as="geometry" />
        </mxCell>
        <mxCell id="uCPlCIgPx5DpNd_hUOtd-44" style="edgeStyle=orthogonalEdgeStyle;rounded=0;orthogonalLoop=1;jettySize=auto;html=1;curved=1;" edge="1" parent="1" source="uCPlCIgPx5DpNd_hUOtd-46">
          <mxGeometry relative="1" as="geometry">
            <mxPoint x="369.75" y="222" as="targetPoint" />
          </mxGeometry>
        </mxCell>
        <mxCell id="uCPlCIgPx5DpNd_hUOtd-45" style="edgeStyle=orthogonalEdgeStyle;rounded=0;orthogonalLoop=1;jettySize=auto;html=1;curved=1;endArrow=none;endFill=0;startArrow=classic;startFill=1;" edge="1" parent="1" source="uCPlCIgPx5DpNd_hUOtd-46">
          <mxGeometry relative="1" as="geometry">
            <mxPoint x="549.75" y="222" as="targetPoint" />
          </mxGeometry>
        </mxCell>
        <mxCell id="uCPlCIgPx5DpNd_hUOtd-46" value="O" style="ellipse;whiteSpace=wrap;html=1;aspect=fixed;" vertex="1" parent="1">
          <mxGeometry x="439.75" y="102" width="40" height="40" as="geometry" />
        </mxCell>
        <mxCell id="uCPlCIgPx5DpNd_hUOtd-47" value="Empleado Libre" style="text;html=1;align=center;verticalAlign=middle;resizable=0;points=[];autosize=1;strokeColor=none;fillColor=none;" vertex="1" parent="1">
          <mxGeometry x="405" y="72" width="110" height="30" as="geometry" />
        </mxCell>
        <mxCell id="uCPlCIgPx5DpNd_hUOtd-48" value="&lt;h6&gt;&lt;span style=&quot;font-weight: normal;&quot;&gt;Se envia&lt;br&gt;a deposito&lt;br&gt;de pedidos&amp;nbsp;&lt;br&gt;descartados&lt;/span&gt;&lt;/h6&gt;" style="text;html=1;align=left;verticalAlign=middle;resizable=0;points=[];autosize=1;strokeColor=none;fillColor=none;" vertex="1" parent="1">
          <mxGeometry x="500" y="140" width="70" height="90" as="geometry" />
        </mxCell>
        <mxCell id="uCPlCIgPx5DpNd_hUOtd-49" value="" style="ellipse;whiteSpace=wrap;html=1;aspect=fixed;" vertex="1" parent="1">
          <mxGeometry x="600.0000000000001" y="227" width="40" height="40" as="geometry" />
        </mxCell>
        <mxCell id="uCPlCIgPx5DpNd_hUOtd-50" value="" style="endArrow=none;html=1;rounded=0;" edge="1" parent="1">
          <mxGeometry width="50" height="50" relative="1" as="geometry">
            <mxPoint x="700.0000000000001" y="287" as="sourcePoint" />
            <mxPoint x="700.0000000000001" y="207" as="targetPoint" />
          </mxGeometry>
        </mxCell>
        <mxCell id="uCPlCIgPx5DpNd_hUOtd-52" value="" style="endArrow=classic;html=1;rounded=0;" edge="1" parent="1">
          <mxGeometry width="50" height="50" relative="1" as="geometry">
            <mxPoint x="640.0000000000001" y="246.57999999999998" as="sourcePoint" />
            <mxPoint x="700.0000000000001" y="247" as="targetPoint" />
          </mxGeometry>
        </mxCell>
        <mxCell id="uCPlCIgPx5DpNd_hUOtd-53" value="Pedido Esperando&lt;div&gt;en deposito&lt;/div&gt;" style="text;html=1;align=center;verticalAlign=middle;resizable=0;points=[];autosize=1;strokeColor=none;fillColor=none;" vertex="1" parent="1">
          <mxGeometry x="550" y="262" width="120" height="40" as="geometry" />
        </mxCell>
        <mxCell id="uCPlCIgPx5DpNd_hUOtd-54" value="Se retiran los pedidos&lt;div&gt;del puesto de trabajo&lt;/div&gt;" style="text;html=1;align=center;verticalAlign=middle;resizable=0;points=[];autosize=1;strokeColor=none;fillColor=none;" vertex="1" parent="1">
          <mxGeometry x="640" y="160" width="140" height="40" as="geometry" />
        </mxCell>
        <mxCell id="uCPlCIgPx5DpNd_hUOtd-55" value="Esperando en&lt;div&gt;Contenedor&lt;/div&gt;" style="text;html=1;align=center;verticalAlign=middle;resizable=0;points=[];autosize=1;strokeColor=none;fillColor=none;" vertex="1" parent="1">
          <mxGeometry x="245" y="533" width="100" height="40" as="geometry" />
        </mxCell>
        <mxCell id="uCPlCIgPx5DpNd_hUOtd-56" style="edgeStyle=orthogonalEdgeStyle;rounded=0;orthogonalLoop=1;jettySize=auto;html=1;curved=1;" edge="1" source="uCPlCIgPx5DpNd_hUOtd-58" parent="1">
          <mxGeometry relative="1" as="geometry">
            <mxPoint x="210" y="530" as="targetPoint" />
          </mxGeometry>
        </mxCell>
        <mxCell id="uCPlCIgPx5DpNd_hUOtd-57" style="edgeStyle=orthogonalEdgeStyle;rounded=0;orthogonalLoop=1;jettySize=auto;html=1;curved=1;endArrow=none;endFill=0;startArrow=classic;startFill=1;" edge="1" source="uCPlCIgPx5DpNd_hUOtd-58" parent="1">
          <mxGeometry relative="1" as="geometry">
            <mxPoint x="390" y="530" as="targetPoint" />
          </mxGeometry>
        </mxCell>
        <mxCell id="uCPlCIgPx5DpNd_hUOtd-58" value="OOOO" style="ellipse;whiteSpace=wrap;html=1;aspect=fixed;" vertex="1" parent="1">
          <mxGeometry x="280" y="620" width="40" height="40" as="geometry" />
        </mxCell>
        <mxCell id="uCPlCIgPx5DpNd_hUOtd-59" value="Espacio Libre de Contenedor" style="text;html=1;align=center;verticalAlign=middle;resizable=0;points=[];autosize=1;strokeColor=none;fillColor=none;" vertex="1" parent="1">
          <mxGeometry x="210" y="670" width="180" height="30" as="geometry" />
        </mxCell>
        <mxCell id="uCPlCIgPx5DpNd_hUOtd-60" value="" style="endArrow=classic;html=1;rounded=0;" edge="1" parent="1">
          <mxGeometry width="50" height="50" relative="1" as="geometry">
            <mxPoint x="380.0000000000001" y="517" as="sourcePoint" />
            <mxPoint x="440.0000000000001" y="517" as="targetPoint" />
          </mxGeometry>
        </mxCell>
        <mxCell id="uCPlCIgPx5DpNd_hUOtd-61" value="" style="endArrow=classic;html=1;rounded=0;" edge="1" parent="1">
          <mxGeometry width="50" height="50" relative="1" as="geometry">
            <mxPoint x="379.7500000000001" y="500" as="sourcePoint" />
            <mxPoint x="439.7500000000001" y="500" as="targetPoint" />
          </mxGeometry>
        </mxCell>
        <mxCell id="uCPlCIgPx5DpNd_hUOtd-62" value="" style="endArrow=classic;html=1;rounded=0;" edge="1" parent="1">
          <mxGeometry width="50" height="50" relative="1" as="geometry">
            <mxPoint x="379.7500000000001" y="512" as="sourcePoint" />
            <mxPoint x="439.7500000000001" y="512" as="targetPoint" />
          </mxGeometry>
        </mxCell>
        <mxCell id="uCPlCIgPx5DpNd_hUOtd-63" value="" style="ellipse;whiteSpace=wrap;html=1;aspect=fixed;" vertex="1" parent="1">
          <mxGeometry x="440.0000000000001" y="487" width="40" height="40" as="geometry" />
        </mxCell>
        <mxCell id="uCPlCIgPx5DpNd_hUOtd-64" value="" style="endArrow=none;html=1;rounded=0;" edge="1" parent="1">
          <mxGeometry width="50" height="50" relative="1" as="geometry">
            <mxPoint x="540.0000000000001" y="547" as="sourcePoint" />
            <mxPoint x="540.0000000000001" y="467" as="targetPoint" />
          </mxGeometry>
        </mxCell>
        <mxCell id="uCPlCIgPx5DpNd_hUOtd-67" value="&lt;h5&gt;&lt;span style=&quot;font-weight: normal;&quot;&gt;Se envia pedido&lt;br&gt;a contenedor&lt;/span&gt;&lt;/h5&gt;" style="text;html=1;align=left;verticalAlign=middle;resizable=0;points=[];autosize=1;strokeColor=none;fillColor=none;" vertex="1" parent="1">
          <mxGeometry x="220" y="417" width="90" height="70" as="geometry" />
        </mxCell>
        <mxCell id="uCPlCIgPx5DpNd_hUOtd-68" value="&lt;h5&gt;&lt;span style=&quot;font-weight: normal;&quot;&gt;Se envian 4&lt;br&gt;pedidos al sector&lt;br&gt;de logistica&lt;/span&gt;&lt;/h5&gt;" style="text;html=1;align=left;verticalAlign=middle;resizable=0;points=[];autosize=1;strokeColor=none;fillColor=none;" vertex="1" parent="1">
          <mxGeometry x="314" y="412" width="100" height="80" as="geometry" />
        </mxCell>
        <mxCell id="uCPlCIgPx5DpNd_hUOtd-70" value="Pedidos Esperando&lt;div&gt;en Sector de Logistica&lt;/div&gt;" style="text;html=1;align=center;verticalAlign=middle;resizable=0;points=[];autosize=1;strokeColor=none;fillColor=none;" vertex="1" parent="1">
          <mxGeometry x="385" y="527" width="140" height="40" as="geometry" />
        </mxCell>
        <mxCell id="uCPlCIgPx5DpNd_hUOtd-71" value="" style="endArrow=classic;html=1;rounded=0;" edge="1" parent="1">
          <mxGeometry width="50" height="50" relative="1" as="geometry">
            <mxPoint x="480.0000000000001" y="507" as="sourcePoint" />
            <mxPoint x="540.0000000000001" y="507" as="targetPoint" />
          </mxGeometry>
        </mxCell>
        <mxCell id="uCPlCIgPx5DpNd_hUOtd-72" value="" style="endArrow=classic;html=1;rounded=0;" edge="1" parent="1">
          <mxGeometry width="50" height="50" relative="1" as="geometry">
            <mxPoint x="480.0000000000001" y="517" as="sourcePoint" />
            <mxPoint x="540.0000000000001" y="517" as="targetPoint" />
          </mxGeometry>
        </mxCell>
        <mxCell id="uCPlCIgPx5DpNd_hUOtd-73" value="" style="endArrow=classic;html=1;rounded=0;" edge="1" parent="1">
          <mxGeometry width="50" height="50" relative="1" as="geometry">
            <mxPoint x="479.7500000000001" y="500" as="sourcePoint" />
            <mxPoint x="539.7500000000001" y="500" as="targetPoint" />
          </mxGeometry>
        </mxCell>
        <mxCell id="uCPlCIgPx5DpNd_hUOtd-74" value="" style="endArrow=classic;html=1;rounded=0;" edge="1" parent="1">
          <mxGeometry width="50" height="50" relative="1" as="geometry">
            <mxPoint x="479.7500000000001" y="512" as="sourcePoint" />
            <mxPoint x="539.7500000000001" y="512" as="targetPoint" />
          </mxGeometry>
        </mxCell>
        <mxCell id="uCPlCIgPx5DpNd_hUOtd-75" value="Se despachan&lt;div&gt;los pedidos&lt;/div&gt;" style="text;html=1;align=center;verticalAlign=middle;resizable=0;points=[];autosize=1;strokeColor=none;fillColor=none;" vertex="1" parent="1">
          <mxGeometry x="510" y="432" width="100" height="40" as="geometry" />
        </mxCell>
      </root>
    </mxGraphModel>
  </diagram>
</mxfile>
